<svg width="746" height="580" viewBox="0 0 746 580" fill="none" xmlns="http://www.w3.org/2000/svg">
<g filter="url(#filter0_ii_127_114)">
<path d="M317.07 0.584338C193.165 -0.687089 123.565 -1.2084 1.04963 13.6534C0.366033 13.7364 -0.113155 14.4105 0.0232664 15.0851C20.7925 117.792 79.6434 132.344 166.403 173.7C167.121 174.043 167.303 175.005 166.764 175.592C36.5717 317.466 8.21904 434.218 18.3957 578.896C18.4757 580.033 19.9742 580.413 20.5946 579.456C96.3791 462.581 223.052 411.852 318.958 406.777C473.832 397.331 532.381 525.801 596.597 531.469C632.482 535.247 751.47 395.441 745.804 365.213C735.605 320.568 714.102 295.174 683.598 250.147C683.519 250.03 683.46 249.897 683.427 249.76C649.331 110.059 498.295 6.24934 317.07 0.584338Z" fill="url(#paint0_linear_127_114)"/>
<path d="M573.593 237.524C548.731 176.98 488.301 145.515 392.569 121.242C391.705 121.023 390.909 121.821 391.121 122.686C409.043 195.823 427.94 226.437 528.822 239.148C545.5 241 556 240.5 572.504 239.148C573.341 239.148 573.91 238.297 573.593 237.524Z" fill="url(#paint1_linear_127_114)"/>
</g>
<defs>
<filter id="filter0_ii_127_114" x="0" y="-5" width="751" height="595" filterUnits="userSpaceOnUse" color-interpolation-filters="sRGB">
<feFlood flood-opacity="0" result="BackgroundImageFix"/>
<feBlend mode="normal" in="SourceGraphic" in2="BackgroundImageFix" result="shape"/>
<feColorMatrix in="SourceAlpha" type="matrix" values="0 0 0 0 0 0 0 0 0 0 0 0 0 0 0 0 0 0 127 0" result="hardAlpha"/>
<feOffset dx="3" dy="-5"/>
<feGaussianBlur stdDeviation="20"/>
<feComposite in2="hardAlpha" operator="arithmetic" k2="-1" k3="1"/>
<feColorMatrix type="matrix" values="0 0 0 0 1 0 0 0 0 1 0 0 0 0 1 0 0 0 0.7 0"/>
<feBlend mode="normal" in2="shape" result="effect1_innerShadow_127_114"/>
<feColorMatrix in="SourceAlpha" type="matrix" values="0 0 0 0 0 0 0 0 0 0 0 0 0 0 0 0 0 0 127 0" result="hardAlpha"/>
<feOffset dx="5" dy="10"/>
<feGaussianBlur stdDeviation="14"/>
<feComposite in2="hardAlpha" operator="arithmetic" k2="-1" k3="1"/>
<feColorMatrix type="matrix" values="0 0 0 0 1 0 0 0 0 1 0 0 0 0 1 0 0 0 0.43 0"/>
<feBlend mode="normal" in2="effect1_innerShadow_127_114" result="effect2_innerShadow_127_114"/>
</filter>
<linearGradient id="paint0_linear_127_114" x1="373" y1="0" x2="373" y2="580" gradientUnits="userSpaceOnUse">
<stop stop-color="#FF8000"/>
<stop offset="0.701923"/>
</linearGradient>
<linearGradient id="paint1_linear_127_114" x1="373" y1="0" x2="373" y2="580" gradientUnits="userSpaceOnUse">
<stop offset="0.100962"/>
<stop offset="0.5625" stop-color="#7E3F00"/>
</linearGradient>
</defs>
</svg>
