<svg width="1852" height="580" viewBox="0 0 1852 580" fill="none" xmlns="http://www.w3.org/2000/svg">
<g filter="url(#filter0_ii_130_120)">
<path d="M317.07 0.584338C193.165 -0.687089 123.565 -1.2084 1.04963 13.6534C0.366033 13.7364 -0.113155 14.4105 0.0232664 15.0851C20.7925 117.792 79.6434 132.344 166.403 173.7C167.121 174.043 167.303 175.005 166.764 175.592C36.5717 317.466 8.21904 434.218 18.3957 578.896C18.4757 580.033 19.9742 580.413 20.5946 579.456C96.3791 462.581 223.052 411.852 318.958 406.777C473.832 397.331 532.381 525.801 596.597 531.469C632.482 535.247 751.47 395.441 745.804 365.213C735.605 320.568 714.102 295.174 683.598 250.147C683.519 250.03 683.46 249.897 683.427 249.76C649.331 110.059 498.295 6.24934 317.07 0.584338Z" fill="url(#paint0_linear_130_120)"/>
<path d="M573.593 237.524C548.731 176.98 488.301 145.515 392.569 121.242C391.705 121.023 390.909 121.821 391.121 122.686C409.043 195.823 427.94 226.437 528.822 239.148C545.5 241 556 240.5 572.504 239.148C573.341 239.148 573.91 238.297 573.593 237.524Z" fill="url(#paint1_linear_130_120)"/>
</g>
<path d="M1563.79 190.176H1605.14V429H1563.79V190.176Z" fill="black"/>
<path d="M1410.39 200.059C1422.59 164.235 1444.29 149 1470.76 149H1563.79V190.176H1472C1461.66 190.176 1458.97 197.588 1451.74 205.412L1410.8 429H1364.49L1410.39 200.059Z" fill="black"/>
<path d="M896 149.412H937.349V372.588C937.349 382.471 943.552 387.412 952.649 387.412H1077.94V429H952.649C926.805 429 896 407.176 896 372.588V149.412Z" fill="black"/>
<path d="M1297.92 149.412H1339.27V368.882C1339.27 400.382 1314.87 429 1283.86 429H1164.36C1132.11 429 1103.57 405.941 1103.57 368.059V321.941L1144.92 342.529V368.059C1144.92 378.971 1154.64 388.235 1165.19 388.235H1283.03C1293.58 388.235 1297.92 377.118 1297.92 368.471V347.471L1155.26 274.588C1107.5 251.118 1103.57 231.147 1103.57 215.294V149.412H1144.92V215.294C1144.92 222.706 1150.71 231.147 1155.26 231.147L1297.92 301.971V149.412Z" fill="black"/>
<path d="M1677.92 184.824C1677.92 188.529 1679.37 191.412 1682.47 194.912L1744.08 261L1805.68 194.912C1808.78 191.412 1810.23 188.529 1810.23 184.824V149.412H1851.58V184.824C1850.94 198.503 1847.58 206.583 1835.04 221.882L1770.12 291.676L1831.32 352.618C1833.8 355.088 1852.41 377.118 1851.99 392.765V429H1810.65V392.765C1810.65 391.941 1810.44 389.265 1808.16 388.235C1806.1 387.206 1805.68 386.176 1805.27 383.088L1744.08 317.412L1682.89 383.088C1682.47 386.176 1682.06 387.206 1679.99 388.235C1677.72 389.265 1677.51 391.941 1677.51 392.765V429H1636.16V392.765C1635.75 377.118 1654.36 355.088 1656.84 352.618L1718.03 291.676L1653.11 221.882C1640.58 206.583 1637.22 198.503 1636.57 184.824V149.412H1677.92V184.824Z" fill="black"/>
<defs>
<filter id="filter0_ii_130_120" x="0" y="-5" width="751" height="595" filterUnits="userSpaceOnUse" color-interpolation-filters="sRGB">
<feFlood flood-opacity="0" result="BackgroundImageFix"/>
<feBlend mode="normal" in="SourceGraphic" in2="BackgroundImageFix" result="shape"/>
<feColorMatrix in="SourceAlpha" type="matrix" values="0 0 0 0 0 0 0 0 0 0 0 0 0 0 0 0 0 0 127 0" result="hardAlpha"/>
<feOffset dx="3" dy="-5"/>
<feGaussianBlur stdDeviation="20"/>
<feComposite in2="hardAlpha" operator="arithmetic" k2="-1" k3="1"/>
<feColorMatrix type="matrix" values="0 0 0 0 1 0 0 0 0 1 0 0 0 0 1 0 0 0 0.7 0"/>
<feBlend mode="normal" in2="shape" result="effect1_innerShadow_130_120"/>
<feColorMatrix in="SourceAlpha" type="matrix" values="0 0 0 0 0 0 0 0 0 0 0 0 0 0 0 0 0 0 127 0" result="hardAlpha"/>
<feOffset dx="5" dy="10"/>
<feGaussianBlur stdDeviation="14"/>
<feComposite in2="hardAlpha" operator="arithmetic" k2="-1" k3="1"/>
<feColorMatrix type="matrix" values="0 0 0 0 1 0 0 0 0 1 0 0 0 0 1 0 0 0 0.43 0"/>
<feBlend mode="normal" in2="effect1_innerShadow_130_120" result="effect2_innerShadow_130_120"/>
</filter>
<linearGradient id="paint0_linear_130_120" x1="373" y1="0" x2="373" y2="580" gradientUnits="userSpaceOnUse">
<stop stop-color="#FF8000"/>
<stop offset="0.701923"/>
</linearGradient>
<linearGradient id="paint1_linear_130_120" x1="373" y1="0" x2="373" y2="580" gradientUnits="userSpaceOnUse">
<stop offset="0.100962"/>
<stop offset="0.5625" stop-color="#7E3F00"/>
</linearGradient>
</defs>
</svg>
